<svg role="img" viewBox="0 0 24 24" xmlns="http://www.w3.org/2000/svg" fill="#FFFFFF"><title>LeetCode</title><path d="M13.483 0a1.374 1.374 0 0 0-.961.414L7.116 5.829a1.376 1.376 0 1 0 1.946 1.946l5.406-5.406L14.468 2.4l5.406 5.406a1.376 1.376 0 1 0 1.946-1.946l-5.406-5.406a1.374 1.374 0 0 0-1.946 0L13.483 0zM4.145 7.181a1.376 1.376 0 0 0-1.946 0l-1.785 1.785a1.376 1.376 0 1 0 1.946 1.946l1.785-1.785a1.376 1.376 0 0 0 0-1.946zM13.483 13.483a1.376 1.376 0 0 0 1.946 0l5.406-5.406a1.376 1.376 0 1 0-1.946-1.946l-5.406 5.406a1.376 1.376 0 0 0 0 1.946zM1.441 14.441a1.376 1.376 0 0 0 0 1.946l5.406 5.406a1.376 1.376 0 1 0 1.946-1.946l-5.406-5.406a1.376 1.376 0 0 0-1.946 0zM12.522 23.586a1.376 1.376 0 0 0 1.946 0l5.406-5.406a1.376 1.376 0 1 0-1.946-1.946l-5.406 5.406a1.376 1.376 0 0 0 0 1.946z"/></svg>
